<?xml version="1.0" standalone="no"?>
<!DOCTYPE svg PUBLIC "-//W3C//DTD SVG 20010904//EN"
 "http://www.w3.org/TR/2001/REC-SVG-20010904/DTD/svg10.dtd">
<svg version="1.0" xmlns="http://www.w3.org/2000/svg"
 width="2000.000000pt" height="2000.000000pt" viewBox="0 0 2000.000000 2000.000000"
 preserveAspectRatio="xMidYMid meet">
<metadata>
Created by potrace 1.16, written by Peter Selinger 2001-2019
</metadata>
<g transform="translate(0.000000,2000.000000) scale(0.100000,-0.100000)"
fill="#000000" stroke="none">
<path d="M1010 16820 l0 -2170 2170 0 2170 0 0 2170 0 2170 -2170 0 -2170 0 0
-2170z m3720 0 l0 -1550 -1550 0 -1550 0 0 1550 0 1550 1550 0 1550 0 0 -1550z"/>
<path d="M2250 16820 l0 -930 930 0 930 0 0 930 0 930 -930 0 -930 0 0 -930z"/>
<path d="M7210 18680 l0 -310 -620 0 -620 0 0 -310 0 -310 310 0 310 0 0 -310
0 -310 -310 0 -310 0 0 -1240 0 -1240 310 0 310 0 0 310 0 310 310 0 310 0 0
-930 0 -930 -310 0 -310 0 0 310 0 310 -930 0 -930 0 0 -310 0 -310 -310 0
-310 0 0 310 0 310 -620 0 -620 0 0 -310 0 -310 -310 0 -310 0 0 310 0 310
-310 0 -310 0 0 -310 0 -310 -310 0 -310 0 0 -620 0 -620 930 0 930 0 0 -310
0 -310 310 0 310 0 0 -310 0 -310 -310 0 -310 0 0 -310 0 -310 -310 0 -310 0
0 620 0 620 -310 0 -310 0 0 -310 0 -310 -310 0 -310 0 0 -310 0 -310 310 0
310 0 0 -310 0 -310 -310 0 -310 0 0 -310 0 -310 310 0 310 0 0 -310 0 -310
-310 0 -310 0 0 -930 0 -930 310 0 310 0 0 -310 0 -310 310 0 310 0 0 310 0
310 930 0 930 0 0 -310 0 -310 620 0 620 0 0 310 0 310 -620 0 -620 0 0 310 0
310 620 0 620 0 0 310 0 310 -930 0 -930 0 0 310 0 310 310 0 310 0 0 310 0
310 310 0 310 0 0 -310 0 -310 310 0 310 0 0 310 0 310 -310 0 -310 0 0 310 0
310 620 0 620 0 0 -620 0 -620 310 0 310 0 0 -310 0 -310 310 0 310 0 0 310 0
310 310 0 310 0 0 -930 0 -930 -310 0 -310 0 0 -310 0 -310 -310 0 -310 0 0
620 0 620 -310 0 -310 0 0 -1240 0 -1240 310 0 310 0 0 -310 0 -310 -310 0
-310 0 0 -620 0 -620 310 0 310 0 0 -310 0 -310 -310 0 -310 0 0 -310 0 -310
620 0 620 0 0 620 0 620 930 0 930 0 0 -310 0 -310 -310 0 -310 0 0 -310 0
-310 -310 0 -310 0 0 -310 0 -310 310 0 310 0 0 310 0 310 310 0 310 0 0 -310
0 -310 620 0 620 0 0 310 0 310 -620 0 -620 0 0 310 0 310 310 0 310 0 0 310
0 310 310 0 310 0 0 -310 0 -310 310 0 310 0 0 310 0 310 310 0 310 0 0 -310
0 -310 310 0 310 0 0 930 0 930 -310 0 -310 0 0 310 0 310 -310 0 -310 0 0
-310 0 -310 -310 0 -310 0 0 620 0 620 310 0 310 0 0 310 0 310 620 0 620 0 0
310 0 310 310 0 310 0 0 -1240 0 -1240 310 0 310 0 0 -620 0 -620 -310 0 -310
0 0 -620 0 -620 -310 0 -310 0 0 -310 0 -310 620 0 620 0 0 620 0 620 620 0
620 0 0 -310 0 -310 310 0 310 0 0 -310 0 -310 310 0 310 0 0 310 0 310 620 0
620 0 0 -310 0 -310 620 0 620 0 0 310 0 310 -310 0 -310 0 0 310 0 310 310 0
310 0 0 310 0 310 -310 0 -310 0 0 -310 0 -310 -1240 0 -1240 0 0 310 0 310
310 0 310 0 0 310 0 310 310 0 310 0 0 310 0 310 310 0 310 0 0 -310 0 -310
930 0 930 0 0 1860 0 1860 -310 0 -310 0 0 310 0 310 -310 0 -310 0 0 310 0
310 310 0 310 0 0 310 0 310 310 0 310 0 0 310 0 310 -310 0 -310 0 0 620 0
620 -620 0 -620 0 0 -310 0 -310 310 0 310 0 0 -310 0 -310 -310 0 -310 0 0
-310 0 -310 310 0 310 0 0 -310 0 -310 -310 0 -310 0 0 -620 0 -620 310 0 310
0 0 -310 0 -310 -310 0 -310 0 0 -620 0 -620 310 0 310 0 0 -310 0 -310 -620
0 -620 0 0 1550 0 1550 -310 0 -310 0 0 310 0 310 310 0 310 0 0 620 0 620
-1240 0 -1240 0 0 310 0 310 620 0 620 0 0 310 0 310 310 0 310 0 0 -310 0
-310 310 0 310 0 0 930 0 930 310 0 310 0 0 -310 0 -310 310 0 310 0 0 620 0
620 -310 0 -310 0 0 620 0 620 -930 0 -930 0 0 -310 0 -310 620 0 620 0 0
-310 0 -310 -930 0 -930 0 0 620 0 620 -310 0 -310 0 0 -930 0 -930 -620 0
-620 0 0 -310 0 -310 310 0 310 0 0 -310 0 -310 -310 0 -310 0 0 -310 0 -310
-930 0 -930 0 0 -620 0 -620 310 0 310 0 0 310 0 310 620 0 620 0 0 -310 0
-310 -310 0 -310 0 0 -310 0 -310 -620 0 -620 0 0 -310 0 -310 310 0 310 0 0
-310 0 -310 310 0 310 0 0 -310 0 -310 -620 0 -620 0 0 310 0 310 -620 0 -620
0 0 -620 0 -620 310 0 310 0 0 -310 0 -310 -620 0 -620 0 0 310 0 310 -310 0
-310 0 0 1240 0 1240 310 0 310 0 0 -310 0 -310 620 0 620 0 0 310 0 310 -620
0 -620 0 0 620 0 620 310 0 310 0 0 -310 0 -310 310 0 310 0 0 310 0 310 -310
0 -310 0 0 310 0 310 310 0 310 0 0 310 0 310 930 0 930 0 0 930 0 930 310 0
310 0 0 1240 0 1240 310 0 310 0 0 -310 0 -310 310 0 310 0 0 310 0 310 -310
0 -310 0 0 310 0 310 -310 0 -310 0 0 310 0 310 310 0 310 0 0 310 0 310 -310
0 -310 0 0 -310 0 -310 -620 0 -620 0 0 620 0 620 1240 0 1240 0 0 620 0 620
-1550 0 -1550 0 0 -620 0 -620 -310 0 -310 0 0 310 0 310 -310 0 -310 0 0
-310 0 -310 -620 0 -620 0 0 -310 0 -310 -310 0 -310 0 0 620 0 620 620 0 620
0 0 310 0 310 -930 0 -930 0 0 -310z m3100 -1240 l0 -310 -310 0 -310 0 0 310
0 310 310 0 310 0 0 -310z m-1240 -930 l0 -620 -620 0 -620 0 0 310 0 310 310
0 310 0 0 310 0 310 310 0 310 0 0 -620z m-1860 -310 l0 -310 -310 0 -310 0 0
310 0 310 310 0 310 0 0 -310z m4340 -310 l0 -620 310 0 310 0 0 310 0 310
310 0 310 0 0 -310 0 -310 -310 0 -310 0 0 -620 0 -620 -930 0 -930 0 0 620 0
620 -310 0 -310 0 0 -930 0 -930 310 0 310 0 0 -310 0 -310 310 0 310 0 0 310
0 310 310 0 310 0 0 -310 0 -310 -310 0 -310 0 0 -310 0 -310 -620 0 -620 0 0
-310 0 -310 -310 0 -310 0 0 310 0 310 -310 0 -310 0 0 -310 0 -310 -930 0
-930 0 0 -310 0 -310 620 0 620 0 0 -310 0 -310 -310 0 -310 0 0 -310 0 -310
-620 0 -620 0 0 310 0 310 -930 0 -930 0 0 -310 0 -310 -310 0 -310 0 0 -620
0 -620 -310 0 -310 0 0 -620 0 -620 -620 0 -620 0 0 310 0 310 310 0 310 0 0
930 0 930 620 0 620 0 0 310 0 310 310 0 310 0 0 620 0 620 -310 0 -310 0 0
930 0 930 310 0 310 0 0 -310 0 -310 310 0 310 0 0 310 0 310 310 0 310 0 0
-310 0 -310 -310 0 -310 0 0 -310 0 -310 310 0 310 0 0 -310 0 -310 310 0 310
0 0 930 0 930 310 0 310 0 0 -620 0 -620 310 0 310 0 0 620 0 620 620 0 620 0
0 310 0 310 310 0 310 0 0 620 0 620 310 0 310 0 0 620 0 620 930 0 930 0 0
-620z m-3100 -930 l0 -310 -310 0 -310 0 0 310 0 310 310 0 310 0 0 -310z
m-6200 -1860 l0 -310 -310 0 -310 0 0 310 0 310 310 0 310 0 0 -310z m13640
-1240 l0 -310 -930 0 -930 0 0 310 0 310 930 0 930 0 0 -310z m-6200 -1240 l0
-310 -310 0 -310 0 0 -310 0 -310 -310 0 -310 0 0 -620 0 -620 -310 0 -310 0
0 620 0 620 310 0 310 0 0 620 0 620 620 0 620 0 0 -310z m4340 -1240 l0 -310
930 0 930 0 0 -310 0 -310 -310 0 -310 0 0 -310 0 -310 -310 0 -310 0 0 -310
0 -310 -930 0 -930 0 0 620 0 620 310 0 310 0 0 620 0 620 310 0 310 0 0 -310z
m4340 0 l0 -310 -310 0 -310 0 0 310 0 310 310 0 310 0 0 -310z m-7440 -3100
l0 -310 -310 0 -310 0 0 310 0 310 310 0 310 0 0 -310z m7440 -310 l0 -620
-310 0 -310 0 0 620 0 620 310 0 310 0 0 -620z m-9920 -620 l0 -620 620 0 620
0 0 -310 0 -310 310 0 310 0 0 -310 0 -310 -310 0 -310 0 0 -310 0 -310 -310
0 -310 0 0 310 0 310 -310 0 -310 0 0 620 0 620 -310 0 -310 0 0 620 0 620
310 0 310 0 0 -620z m7440 -310 l0 -930 -930 0 -930 0 0 930 0 930 930 0 930
0 0 -930z m-8680 0 l0 -310 -310 0 -310 0 0 310 0 310 310 0 310 0 0 -310z
m11160 -620 l0 -310 -310 0 -310 0 0 310 0 310 310 0 310 0 0 -310z m-10540
-620 l0 -310 -310 0 -310 0 0 -310 0 -310 -310 0 -310 0 0 310 0 310 310 0
310 0 0 310 0 310 310 0 310 0 0 -310z m7440 -620 l0 -310 -310 0 -310 0 0
310 0 310 310 0 310 0 0 -310z"/>
<path d="M10930 14960 l0 -310 310 0 310 0 0 310 0 310 -310 0 -310 0 0 -310z"/>
<path d="M9070 13100 l0 -310 310 0 310 0 0 310 0 310 -310 0 -310 0 0 -310z"/>
<path d="M7830 12480 l0 -310 310 0 310 0 0 310 0 310 -310 0 -310 0 0 -310z"/>
<path d="M4730 11240 l0 -310 310 0 310 0 0 310 0 310 -310 0 -310 0 0 -310z"/>
<path d="M5970 10620 l0 -310 310 0 310 0 0 310 0 310 -310 0 -310 0 0 -310z"/>
<path d="M13410 8140 l0 -310 620 0 620 0 0 310 0 310 -620 0 -620 0 0 -310z"/>
<path d="M9070 3800 l0 -310 310 0 310 0 0 310 0 310 -310 0 -310 0 0 -310z"/>
<path d="M14650 5040 l0 -310 310 0 310 0 0 310 0 310 -310 0 -310 0 0 -310z"/>
<path d="M14650 16820 l0 -2170 2170 0 2170 0 0 2170 0 2170 -2170 0 -2170 0
0 -2170z m3720 0 l0 -1550 -1550 0 -1550 0 0 1550 0 1550 1550 0 1550 0 0
-1550z"/>
<path d="M15890 16820 l0 -930 930 0 930 0 0 930 0 930 -930 0 -930 0 0 -930z"/>
<path d="M17750 13720 l0 -310 310 0 310 0 0 310 0 310 -310 0 -310 0 0 -310z"/>
<path d="M18370 12170 l0 -620 310 0 310 0 0 620 0 620 -310 0 -310 0 0 -620z"/>
<path d="M1010 3180 l0 -2170 2170 0 2170 0 0 2170 0 2170 -2170 0 -2170 0 0
-2170z m3720 0 l0 -1550 -1550 0 -1550 0 0 1550 0 1550 1550 0 1550 0 0 -1550z"/>
<path d="M2250 3180 l0 -930 930 0 930 0 0 930 0 930 -930 0 -930 0 0 -930z"/>
<path d="M10930 1320 l0 -310 310 0 310 0 0 310 0 310 -310 0 -310 0 0 -310z"/>
</g>
</svg>
